<svg width="89" height="30" fill="none" xmlns="http://www.w3.org/2000/svg"><g clip-path="url(#clip0_3_98)" fill="#000"><path d="M21.11 15.94c-.037-3.795 3.099-5.62 3.24-5.706-1.765-2.58-4.506-2.935-5.483-2.975-2.332-.239-4.553 1.375-5.74 1.375-1.185 0-3.012-1.342-4.947-1.302-2.546.036-4.893 1.48-6.206 3.76-2.64 4.581-.672 11.385 1.906 15.108 1.263 1.82 2.76 3.872 4.734 3.796 1.903-.076 2.619-1.23 4.912-1.23 2.293 0 2.94 1.23 4.947 1.194 2.043-.04 3.338-1.86 4.59-3.687 1.439-2.117 2.036-4.162 2.072-4.27-.047-.019-3.982-1.528-4.025-6.062zM17.338 4.791C18.386 3.521 19.092 1.76 18.9 0c-1.508.062-3.334 1.006-4.416 2.276-.97 1.122-1.819 2.917-1.588 4.64 1.675.13 3.396-.858 4.442-2.125zm16.997 14.88L32.6 24.938h-2.231L36.05 8.204h2.603l5.704 16.733h-2.308l-1.786-5.265h-5.928zm5.483-1.69l-1.635-4.816c-.372-1.093-.618-2.084-.868-3.054h-.047a53.72 53.72 0 01-.842 3.029l-1.635 4.838 5.027.004zm6.231-1.139a79.48 79.48 0 00-.101-3.923h1.96l.101 2.063h.047c.894-1.466 2.308-2.334 4.268-2.334 2.904 0 5.085 2.457 5.085 6.108 0 4.321-2.63 6.453-5.458 6.453-1.587 0-2.976-.695-3.696-1.886h-.047v6.529H46.05v-13.01zm2.156 3.203c0 .325.047.618.101.893.398 1.513 1.71 2.559 3.277 2.559 2.307 0 3.649-1.885 3.649-4.643 0-2.41-1.266-4.466-3.574-4.466-1.486 0-2.875 1.068-3.301 2.707-.076.272-.149.597-.149.894l-.003 2.056zm11.46-3.203c0-1.538-.047-2.783-.1-3.923h1.96l.1 2.063h.048c.893-1.466 2.307-2.334 4.267-2.334 2.904 0 5.085 2.457 5.085 6.108 0 4.321-2.63 6.453-5.457 6.453-1.588 0-2.977-.695-3.696-1.886h-.047v6.529h-2.16v-13.01zm2.16 3.203c0 .325.047.618.1.893.399 1.513 1.712 2.559 3.277 2.559 2.308 0 3.65-1.885 3.65-4.643 0-2.41-1.266-4.466-3.574-4.466-1.486 0-2.875 1.068-3.302 2.707-.075.272-.148.597-.148.894l-.003 2.056zM73.285 7.31h2.185v17.624h-2.185V7.31zm6.575 12.015c.047 2.952 1.935 4.172 4.116 4.172 1.562 0 2.506-.271 3.323-.619l.373 1.564c-.767.347-2.083.745-3.993.745-3.696 0-5.906-2.432-5.906-6.058s2.134-6.481 5.632-6.481c3.92 0 4.961 3.448 4.961 5.66 0 .448-.047.792-.076 1.017h-8.43zm6.401-1.564c.026-1.39-.57-3.55-3.026-3.55-2.21 0-3.176 2.037-3.35 3.55h6.376z"/></g><defs><clipPath id="clip0_3_98"><path fill="#fff" transform="translate(.723)" d="M0 0h87.647v30H0z"/></clipPath></defs></svg>