<svg width="92" height="30" fill="none" xmlns="http://www.w3.org/2000/svg"><g clip-path="url(#clip0_3_89)" fill="#000"><path d="M11.458.003h.817c2.836.062 5.625 1.203 7.629 3.223-.74.756-1.495 1.48-2.22 2.237-1.125-1.018-2.48-1.805-3.96-2.082-2.189-.463-4.547-.047-6.38 1.202C5.34 5.894 3.983 8.115 3.69 10.49c-.324 2.344.339 4.811 1.864 6.631a8.247 8.247 0 006.011 2.961c2.158.123 4.408-.54 5.98-2.051 1.233-1.064 1.803-2.683 1.988-4.256-2.558 0-5.117.015-7.675 0v-3.177h10.773c.554 3.408-.247 7.248-2.836 9.684-1.726 1.728-4.115 2.745-6.55 2.946-2.358.231-4.793-.216-6.89-1.357-2.511-1.342-4.515-3.609-5.501-6.277-.925-2.452-.94-5.227-.077-7.695A11.74 11.74 0 015.016 2.27C6.881.898 9.146.142 11.458.003zM73.26.805h3.297v22.021c-1.094 0-2.204.016-3.298-.015.016-7.325 0-14.666 0-22.006zM29.968 8.438c2.034-.385 4.238.046 5.918 1.265a7.243 7.243 0 012.913 4.626c.416 2.144-.108 4.488-1.495 6.184-1.495 1.897-3.946 2.915-6.334 2.76-2.189-.123-4.316-1.218-5.61-3.007-1.464-1.973-1.819-4.688-1.017-7 .8-2.484 3.066-4.38 5.625-4.828zm.462 2.93a4.143 4.143 0 00-2.157 1.373c-1.495 1.789-1.403 4.703.246 6.369.94.956 2.358 1.403 3.668 1.141 1.218-.216 2.281-1.033 2.867-2.113 1.017-1.835.724-4.364-.833-5.798-1.001-.925-2.465-1.311-3.79-.972zm15.874-2.93c2.327-.447 4.87.2 6.612 1.835 2.835 2.545 3.144 7.31.724 10.24-1.464 1.85-3.837 2.869-6.18 2.76-2.235-.061-4.439-1.171-5.764-3.007-1.495-2.02-1.819-4.796-.971-7.155.848-2.406 3.067-4.241 5.579-4.673zm.462 2.93a4.214 4.214 0 00-2.157 1.357c-1.48 1.758-1.418 4.627.17 6.308.94 1.002 2.403 1.496 3.76 1.218a4.228 4.228 0 002.866-2.113c1.002-1.85.71-4.38-.863-5.814a4.13 4.13 0 00-3.776-.956zM60.16 9.333c1.772-1.11 4.13-1.42 6.04-.463.602.262 1.095.71 1.573 1.157.015-.417 0-.849.015-1.28 1.033.015 2.065 0 3.113.015v13.602c-.015 2.05-.54 4.225-2.019 5.721-1.618 1.65-4.1 2.16-6.334 1.82-2.389-.355-4.47-2.098-5.394-4.303.925-.447 1.895-.802 2.851-1.218.54 1.264 1.634 2.344 3.005 2.59 1.372.247 2.96-.092 3.853-1.233.956-1.172.956-2.776.91-4.21-.71.694-1.526 1.31-2.513 1.542-2.142.602-4.5-.139-6.149-1.588-1.664-1.45-2.65-3.686-2.558-5.907.046-2.513 1.464-4.935 3.606-6.245zm3.19 1.974a4.054 4.054 0 00-2.42 1.403c-1.449 1.727-1.449 4.488.015 6.184.832 1.002 2.173 1.558 3.468 1.419 1.217-.124 2.342-.895 2.944-1.959 1.017-1.804.847-4.256-.525-5.83a3.791 3.791 0 00-3.483-1.217zm17.168-1.187c1.85-1.728 4.7-2.314 7.074-1.404 2.25.848 3.683 2.992 4.408 5.197-3.344 1.388-6.673 2.76-10.018 4.148.463.88 1.171 1.681 2.127 2.005 1.34.478 2.944.308 4.069-.586.447-.34.801-.787 1.14-1.218.848.57 1.695 1.125 2.543 1.696-1.202 1.804-3.22 3.069-5.394 3.27-2.404.292-4.963-.633-6.52-2.514-2.558-2.961-2.31-7.927.571-10.595zm1.65 2.852c-.525.756-.74 1.681-.725 2.59 2.234-.924 4.47-1.85 6.704-2.79-.37-.864-1.264-1.388-2.173-1.527-1.464-.262-2.99.524-3.807 1.727z"/></g><defs><clipPath id="clip0_3_89"><path fill="#fff" transform="translate(.146)" d="M0 0h91.854v30H0z"/></clipPath></defs></svg>