<svg width="126" height="30" fill="none" xmlns="http://www.w3.org/2000/svg"><path fill-rule="evenodd" clip-rule="evenodd" d="M49.188 21.686l-1.713 7.97h-3.94L50.044.77h4.667l6.125 28.885h-3.983l-1.67-7.97h-5.996zm5.524-3.215l-1.327-6.9c-.386-1.972-.771-4.542-1.07-6.6h-.172c-.3 2.1-.73 4.756-1.113 6.6l-1.37 6.9h5.053zM75.879 0v24.3c0 1.586.086 3.9.17 5.356H72.58l-.257-2.527h-.128C71.51 28.584 69.925 30 67.827 30c-3.855 0-6.21-4.2-6.21-10.671 0-7.372 3.125-10.843 6.424-10.843 1.67 0 2.997.772 3.725 2.357h.086V0h4.026zm-4.027 16.757c0-.385 0-.857-.042-1.287-.215-1.885-1.285-3.513-2.74-3.513-2.529 0-3.385 3.513-3.385 7.371 0 4.286 1.114 7.285 3.256 7.285.899 0 2.098-.47 2.783-2.956.086-.343.128-.858.128-1.328v-5.572zm13.617 13.242c-4.154 0-7.153-3.557-7.153-10.713 0-7.586 3.555-10.8 7.367-10.8 4.111 0 7.066 3.685 7.066 10.714 0 8.271-4.069 10.8-7.238 10.8h-.042zm.128-3.17c2.483 0 3.04-4.415 3.04-7.586 0-3.129-.556-7.586-3.125-7.586-2.656 0-3.17 4.457-3.17 7.586 0 3.471.6 7.585 3.213 7.585h.042zM95.176 0H99.2v11.185h.085c1.071-1.885 2.527-2.7 4.369-2.7 3.554 0 5.782 4.029 5.782 10.415 0 7.456-3.041 11.1-6.467 11.1-2.056 0-3.213-1.116-4.113-2.959h-.17l-.215 2.615h-3.468c.085-1.414.171-3.771.171-5.358V0zM99.2 22.284c0 .473.042.944.17 1.287.643 2.529 1.885 3.042 2.698 3.042 2.399 0 3.298-3.17 3.298-7.456 0-3.986-.941-7.2-3.34-7.2-1.328 0-2.399 1.585-2.699 3.085a7.9 7.9 0 00-.128 1.415v5.827zm16.177-2.228c.043 5.357 2.355 6.685 4.796 6.685 1.456 0 2.699-.342 3.598-.771l.6 2.914c-1.242.643-3.127.987-4.969.987-5.224 0-7.966-3.943-7.966-10.372 0-6.814 3.126-11.015 7.452-11.015 4.326 0 6.339 4.158 6.339 9.387 0 1.028-.043 1.672-.085 2.228l-9.765-.043zm6.038-2.87c.043-3.686-1.242-5.657-2.826-5.657-2.099 0-3.042 3.043-3.169 5.656h5.995zM20.845.848h12.026v28.808L20.845.848zm-8.472 0H.338v28.808L12.373.848zm4.237 10.617l7.662 18.19h-5.02l-2.292-5.793h-5.61l5.259-12.397zm108.276-3.033a.92.92 0 01.648.273.908.908 0 01.262.653c0 .523-.404.93-.914.93a.919.919 0 01-.918-.93.93.93 0 01.267-.654.924.924 0 01.651-.272h.004zm-.004.143c-.407 0-.741.351-.741.783 0 .44.334.787.745.787.412.004.741-.346.741-.783 0-.436-.329-.787-.741-.787h-.004zm-.173 1.323h-.164V8.864c.087-.012.169-.025.293-.025.156 0 .258.033.32.078s.095.115.095.215c0 .135-.09.218-.202.251v.008c.091.016.153.1.173.251a.845.845 0 00.066.256h-.172c-.025-.033-.05-.128-.07-.263-.025-.133-.091-.182-.223-.182h-.115v.445h-.001zm0-.573h.12c.135 0 .252-.049.252-.177 0-.09-.067-.181-.252-.181a.789.789 0 00-.12.008v.35zM34.457.848a.914.914 0 01.91.926.914.914 0 01-.914.931.919.919 0 01-.918-.93.921.921 0 01.918-.927h.004zm-.004.143c-.408 0-.741.351-.741.783 0 .441.333.787.745.787.411.004.741-.346.741-.782 0-.437-.33-.788-.741-.788h-.004zm-.173 1.323h-.165V1.28a1.8 1.8 0 01.293-.024c.156 0 .259.032.32.078.062.045.095.115.095.214 0 .136-.09.218-.202.251v.008c.09.017.153.1.174.252a.86.86 0 00.065.256h-.172c-.025-.033-.05-.128-.07-.264-.025-.132-.091-.18-.223-.18h-.115v.443zm0-.573h.12c.135 0 .25-.049.25-.177 0-.09-.065-.181-.25-.181a.768.768 0 00-.12.008v.35z" fill="#000"/></svg>