<svg width="101" height="30" fill="none" xmlns="http://www.w3.org/2000/svg"><g clip-path="url(#clip0_3_96)"><path d="M15.207 0C6.928 0 .217 6.716.217 15c0 8.285 6.711 15 14.99 15 8.28 0 14.99-6.715 14.99-15 0-8.284-6.71-15-14.99-15zm6.874 21.634a.933.933 0 01-1.284.311c-3.52-2.153-7.951-2.64-13.17-1.446a.934.934 0 11-.415-1.823c5.71-1.306 10.608-.744 14.56 1.672.44.27.58.846.31 1.286zm1.835-4.084a1.169 1.169 0 01-1.607.385C18.28 15.457 12.137 14.74 7.37 16.187a1.17 1.17 0 01-.679-2.237c5.444-1.653 12.212-.853 16.84 1.993a1.17 1.17 0 01.384 1.607zm.158-4.253c-4.832-2.871-12.803-3.135-17.415-1.734a1.402 1.402 0 11-.814-2.685c5.295-1.609 14.097-1.298 19.66 2.006a1.403 1.403 0 01-1.431 2.413zm16.927.55c-2.589-.617-3.05-1.05-3.05-1.961 0-.86.81-1.44 2.014-1.44 1.167 0 2.325.44 3.538 1.345a.17.17 0 00.24-.038l1.264-1.783a.17.17 0 00-.033-.23c-1.444-1.16-3.07-1.723-4.97-1.723-2.795 0-4.747 1.678-4.747 4.079 0 2.575 1.684 3.486 4.594 4.19 2.476.571 2.894 1.05 2.894 1.904 0 .948-.845 1.537-2.205 1.537-1.51 0-2.743-.51-4.122-1.704a.178.178 0 00-.124-.04.168.168 0 00-.116.06L34.76 19.73a.168.168 0 00.016.235c1.604 1.433 3.577 2.19 5.706 2.19 3.011 0 4.957-1.647 4.957-4.196.005-2.15-1.282-3.342-4.434-4.11L41 13.847zm11.252-2.554c-1.305 0-2.376.515-3.259 1.569v-1.187a.17.17 0 00-.17-.17h-2.317a.17.17 0 00-.17.17V24.86c0 .093.076.17.17.17h2.318a.17.17 0 00.17-.17v-4.162c.882.992 1.953 1.476 3.258 1.476 2.425 0 4.88-1.868 4.88-5.439.004-3.572-2.452-5.44-4.877-5.44h-.003zm2.185 5.441c0 1.819-1.119 3.088-2.722 3.088-1.585 0-2.78-1.327-2.78-3.088 0-1.76 1.195-3.088 2.78-3.088 1.577 0 2.723 1.298 2.723 3.088zm8.988-5.44c-3.123 0-5.57 2.406-5.57 5.479 0 3.04 2.43 5.42 5.532 5.42 3.135 0 5.59-2.398 5.59-5.459 0-3.05-2.439-5.44-5.552-5.44zm0 8.546c-1.66 0-2.913-1.336-2.913-3.107 0-1.778 1.209-3.069 2.875-3.069 1.672 0 2.933 1.336 2.933 3.108 0 1.778-1.217 3.068-2.894 3.068zm12.221-8.335h-2.55V8.896a.17.17 0 00-.17-.17H70.61a.17.17 0 00-.17.17v2.61h-1.114a.17.17 0 00-.169.17v1.992c0 .094.076.17.17.17h1.114v5.157c0 2.084 1.036 3.141 3.08 3.141.832 0 1.522-.172 2.172-.54a.169.169 0 00.085-.148V19.55a.17.17 0 00-.246-.152 2.919 2.919 0 01-1.36.329c-.743 0-1.075-.338-1.075-1.095v-4.793h2.55a.17.17 0 00.17-.17v-1.993a.164.164 0 00-.167-.17h-.003zm8.886.01v-.32c0-.943.361-1.363 1.171-1.363.484 0 .872.096 1.306.241a.17.17 0 00.223-.161V7.957a.17.17 0 00-.12-.162 6.357 6.357 0 00-1.926-.277c-2.14 0-3.272 1.206-3.272 3.487v.49H80.8a.17.17 0 00-.17.17v2.003c0 .094.077.17.17.17h1.114v7.955c0 .094.075.17.169.17H84.4a.17.17 0 00.17-.17v-7.954h2.164l3.315 7.952c-.377.836-.747 1.002-1.252 1.002-.408 0-.838-.122-1.278-.363a.174.174 0 00-.135-.012.171.171 0 00-.1.091l-.785 1.725a.169.169 0 00.073.22c.82.444 1.56.633 2.475.633 1.711 0 2.657-.797 3.49-2.943l4.021-10.396a.17.17 0 00-.157-.232H93.99a.17.17 0 00-.16.114l-2.472 7.064-2.707-7.069a.17.17 0 00-.158-.109h-3.96zm-5.152-.01h-2.317a.17.17 0 00-.17.17v10.118c0 .094.076.17.17.17h2.317a.17.17 0 00.17-.17V11.676a.169.169 0 00-.17-.17zM78.236 6.9a1.663 1.663 0 10-.003 3.325 1.663 1.663 0 00.003-3.325zm20.302 7.86c-.917 0-1.63-.738-1.63-1.633s.722-1.64 1.639-1.64 1.631.736 1.631 1.63a1.64 1.64 0 01-1.64 1.642zm.01-3.111c-.836 0-1.468.664-1.468 1.478s.627 1.47 1.459 1.47a1.46 1.46 0 001.468-1.48c0-.813-.628-1.468-1.459-1.468zm.36 1.637l.462.646h-.389l-.415-.593h-.357v.593h-.326v-1.713h.764c.397 0 .659.204.659.546.002.281-.161.453-.396.52h-.001zm-.275-.773h-.424v.542h.424c.212 0 .339-.104.339-.272 0-.176-.127-.27-.339-.27z" fill="#000"/></g><defs><clipPath id="clip0_3_96"><path fill="#fff" transform="translate(.217)" d="M0 0h99.961v30H0z"/></clipPath></defs></svg>